<?xml version="1.0" encoding="UTF-8"?>
<svg id="Layer_1" xmlns="http://www.w3.org/2000/svg" viewBox="0 0 729.94 332.47">
  <defs>
    <style>
      .cls-1 {
        fill: #c6cdd1;
      }

      .cls-2 {
        fill: #007db6;
      }
    </style>
  </defs>
  <path class="cls-2" d="M573.66,103.75c-11.1-9.13-25.33-14.44-40.72-13.96-34.14,1.06-60.97,30.11-59.93,64.87,1.04,34.76,29.57,62.08,63.71,61.02,9.63-.3,18.68-2.83,26.69-7.08-2.88-5.98-5.17-12.3-6.83-18.89-.05-.19-.1-.37-.15-.56-.2-.8-.37-1.6-.55-2.41-.8-3.55-1.41-7.16-1.83-10.84-4.96,4.27-11.31,6.95-18.31,7.17-16.46.51-30.21-12.66-30.71-29.41-.5-16.76,12.43-30.76,28.89-31.27,9.76-.3,18.53,4.24,24.18,11.46,3.48-10.99,8.79-21.14,15.55-30.1"/>
  <path class="cls-2" d="M424.13,141.62c-3.21,1.94-9.15,2.9-17.83,2.9h-7.66v-28.95h7.49c8.06,0,13.87,1.1,17.45,3.29,3.58,2.2,5.36,6.07,5.36,11.61s-1.6,9.2-4.81,11.14M465.37,186.56c-4.26-9.42-7.62-15.67-10.09-18.77-2.47-3.09-5.61-5.76-9.41-8.02,3.18-1.73,6.04-3.55,8.6-5.46,2.55-1.91,4.98-4.95,7.28-9.14,2.3-4.19,3.45-9.32,3.45-15.38,0-5.2-1.38-10.69-4.13-16.47-2.75-5.78-7.25-10.69-13.49-14.73-6.24-4.04-14.25-6.07-24-6.07h-60.52v120.13h35.58v-46.89h4c4.09,0,7.42.51,10,1.52,2.58,1.01,5.24,3.32,7.96,6.93,2.72,3.61,5.79,9.32,9.19,17.12l9.28,21.32h38.22l-11.92-26.09Z"/>
  <path class="cls-2" d="M517.97,307.06c65.57,2.09,111.23-51.75,111.23-51.75,0,0-8.24-6.03-13.95-9.12-34.91,41.99-81.73,58.16-97.17,59.33-3.64.28-3.1,1.37-.1,1.54M687.18,16.27c-24.47,15.28-52.52,45.03-67.31,60.17-3.38-2.56-6.84-5.01-10.34-7.34-37.58-25.01-118.82-53.46-128.94-55.86-4.73-1.12-4.94.14,1.2,4.88,14.38,11.1,27.22,22.16,27.22,22.16,172.29,54.93,143.09,148.37,120.68,186.46,0,0,5.73,3.92,13.86,10.06,8.35-11.9,20.38-31.3,23.69-56.57,5.63-42.94-11.96-72.88-36.5-94.87,28.21-34.49,50.26-59.07,59.54-65.39,7.82-5.77,10.38-11.67-3.1-3.71"/>
  <path class="cls-1" d="M185.81,152.07v8.11c0,20.15-8.48,41.61-41.38,41.61-12.85,0-26.98-7.59-26.98-22.5,0-20.67,25.7-27.21,51.4-27.21h16.96ZM199.68,132.44c0-30.62-18.5-43.7-47.29-43.7-15.42,0-33.92,6.02-45.23,17.01l8.99,10.73c10.54-9.16,22.36-13.61,36.24-13.61,19.02,0,33.41,8.37,33.41,29.31v7.33h-17.99c-23.39,0-65.79,3.66-65.79,40.56,0,25.65,21.59,35.85,41.89,35.85s32.9-7.33,41.63-22.77h.51c0,6.8.51,13.61,1.54,19.63h14.39c-1.8-13.87-2.31-27.21-2.31-50.77v-29.57ZM0,191.32c9.25,16.75,27.5,24.6,47.8,24.6,22.62,0,42.92-12.56,42.92-37.42,0-48.94-70.42-23.55-70.42-56.26,0-12.56,14.13-19.36,25.19-19.36,13.88,0,22.1,6.02,28.01,17.01l13.88-8.37c-7.71-15.44-22.62-22.77-41.89-22.77S4.88,99.99,4.88,123.54c0,46.06,70.42,22.77,70.42,56,0,13.87-13.88,22.24-27.24,22.24s-28.01-7.06-34.44-19.89l-13.62,9.42Z"/>
  <path class="cls-1" d="M606.89,207.45c.37-4.57,30.03-3.48,27.69-5.66-2.15-2.18-27.25,3.91-38.46-8.96-.12-.24-.28-.48-.4-.73.03,0,.06,0,.09,0-.13-.18-.21-.34-.31-.51-.16-.33-.27-.68-.41-1.02-1.77-8.7,44.52-8.45,41.99-10.8-2.32-2.35-41.53,4.12-46.76-10.12-.12-.83-.21-1.61-.32-2.42,1.25-10.6,30.09-5.62,47.39-11.23,12.28-3.98-46.56,6.15-46.77-11.11.09-.37.22-.75.32-1.12,4.35-7.19,27.12-8.39,39.91-13.12,10.19-3.77-35.34,3.22-28.42-10.43,3.04-4.58,6.65-9.54,11.04-15.16-2.98-3.7-6.91-6.26-10.37-7.87-18.57,19.37-34.37,46.02-27.97,84.61,6.4,38.59,42.08,55.67,79.61,79.69,4.68,6.15-33.44,5.63-30.9,7.99,2.31,2.34,39.45.18,50.51,5.27,1.36.98,2.7,2.02,4.05,3.03,9.3,12.72-84.29,6.88-78.83,11.95,5.03,5.09,82.03-4.46,106.98,13.17,8.83,9.61,16.83,16.79,23.41,29.58-8.18-61.63-89.08-89.88-123.05-125.02"/>
  <polygon class="cls-2" points="349.25 92.57 317.71 92.57 282.08 137.64 246.63 92.57 215.08 92.57 215.08 212.7 248.88 212.7 248.88 143.1 280.34 183.41 283.08 183.41 314.46 143.1 314.46 212.7 349.25 212.7 349.25 92.57"/>
  <path class="cls-1" d="M472.75,264.81c-.58,1.35-1.35,2.53-2.32,3.52-.97.99-2.12,1.78-3.45,2.37-1.33.59-2.75.88-4.26.88s-2.93-.29-4.26-.88c-1.33-.58-2.48-1.37-3.45-2.37-.97-.99-1.75-2.16-2.32-3.52-.58-1.35-.86-2.8-.86-4.34s.29-2.98.86-4.33c.58-1.35,1.35-2.53,2.32-3.52.97-.99,2.12-1.78,3.45-2.36,1.33-.59,2.75-.88,4.26-.88s2.93.29,4.26.88c1.33.59,2.48,1.37,3.45,2.36.97.99,1.75,2.16,2.32,3.52.57,1.35.86,2.8.86,4.33s-.29,2.98-.86,4.34M477.06,246.83h-3.57v4.73h-.12c-1.03-1.7-2.43-3.03-4.2-4-1.77-.97-3.84-1.45-6.22-1.45-2.03,0-3.93.38-5.72,1.15-1.79.77-3.34,1.8-4.67,3.09-1.33,1.29-2.38,2.81-3.16,4.55-.77,1.74-1.16,3.6-1.16,5.58s.39,3.84,1.16,5.58c.77,1.74,1.83,3.26,3.16,4.58,1.33,1.31,2.89,2.35,4.67,3.09,1.79.75,3.69,1.12,5.72,1.12,2.38,0,4.45-.49,6.22-1.46,1.77-.97,3.16-2.3,4.2-4h.12v3.88c0,.53-.02,1.21-.06,2.06-.04.85-.17,1.75-.39,2.7-.22.95-.56,1.9-1.01,2.85-.46.95-1.09,1.82-1.9,2.61-.81.79-1.85,1.42-3.1,1.91-1.25.48-2.79.73-4.61.73-2.14,0-4.17-.42-6.07-1.27-1.91-.85-3.49-2.18-4.76-4l-2.8,2.67c.71.93,1.56,1.76,2.53,2.49.97.73,2.05,1.34,3.25,1.85,1.19.5,2.45.89,3.78,1.15,1.33.26,2.69.39,4.08.39s2.94-.2,4.64-.61c1.71-.41,3.3-1.19,4.79-2.37,1.49-1.17,2.73-2.83,3.72-4.97.99-2.14,1.49-4.95,1.49-8.43v-26.19ZM416.5,274.85h3.57v-14.01c0-1.94.25-3.63.74-5.06.5-1.43,1.17-2.63,2.03-3.58.85-.95,1.87-1.66,3.04-2.12,1.17-.46,2.41-.7,3.72-.7,1.43,0,2.59.25,3.48.76.89.51,1.59,1.18,2.08,2.03.5.85.84,1.81,1.04,2.88.2,1.07.3,2.17.3,3.3v16.49h3.57v-16.67c0-1.53-.15-3.03-.45-4.49-.3-1.46-.83-2.74-1.61-3.85-.77-1.11-1.84-2.01-3.18-2.7-1.35-.69-3.1-1.03-5.24-1.03s-4.17.56-5.83,1.67c-1.67,1.11-2.86,2.43-3.57,3.97h-.18c-.08-.28-.13-.91-.15-1.88-.02-.97-.05-1.98-.09-3.03h-3.57c0,.36.02.88.06,1.55.04.67.07,1.39.09,2.15.02.77.05,1.53.09,2.27.04.75.06,1.38.06,1.91v20.13ZM402.87,237.68c.51.53,1.15.79,1.9.79s1.39-.26,1.91-.79c.51-.52.77-1.17.77-1.94s-.26-1.41-.77-1.94c-.52-.52-1.15-.79-1.91-.79s-1.39.26-1.9.79c-.52.53-.77,1.17-.77,1.94s.26,1.41.77,1.94M402.99,274.85h3.57v-28.01h-3.57v28.01ZM394.23,268.42c-.91,1.17-2,2.11-3.25,2.82-1.25.71-2.63,1.06-4.14,1.06-1.67,0-3.18-.3-4.52-.91-1.35-.61-2.5-1.43-3.45-2.45-.95-1.03-1.68-2.24-2.17-3.64s-.74-2.88-.74-4.46.25-3.06.74-4.46,1.22-2.61,2.17-3.64c.95-1.03,2.1-1.85,3.45-2.46,1.35-.61,2.86-.91,4.52-.91,1.43,0,2.76.33,3.99,1,1.23.67,2.36,1.59,3.39,2.76l2.86-2.18c-1.35-1.54-2.89-2.73-4.61-3.58-1.73-.85-3.6-1.27-5.63-1.27s-4.05.36-5.83,1.09c-1.79.73-3.31,1.75-4.58,3.06-1.27,1.31-2.26,2.87-2.98,4.67-.71,1.8-1.07,3.77-1.07,5.91s.36,4.11,1.07,5.91c.71,1.8,1.71,3.36,2.98,4.67,1.27,1.31,2.8,2.33,4.58,3.06,1.79.73,3.73,1.09,5.83,1.09,1.99,0,3.83-.39,5.54-1.18,1.71-.79,3.24-2.01,4.58-3.67l-2.74-2.3ZM341,274.85h3.57v-14.01c0-1.94.25-3.63.75-5.06.5-1.43,1.17-2.63,2.02-3.58.85-.95,1.87-1.66,3.04-2.12,1.17-.46,2.41-.7,3.72-.7,1.43,0,2.59.25,3.48.76.89.51,1.59,1.18,2.08,2.03.5.85.84,1.81,1.04,2.88.2,1.07.3,2.17.3,3.3v16.49h3.57v-16.67c0-1.53-.15-3.03-.45-4.49-.3-1.46-.83-2.74-1.61-3.85-.77-1.11-1.84-2.01-3.19-2.7-1.35-.69-3.1-1.03-5.24-1.03s-4.17.56-5.84,1.67c-1.67,1.11-2.86,2.43-3.57,3.97h-.18c-.08-.28-.13-.91-.15-1.88-.02-.97-.05-1.98-.09-3.03h-3.57c0,.36.02.88.06,1.55.04.67.07,1.39.09,2.15.02.77.05,1.53.09,2.27.04.75.06,1.38.06,1.91v20.13ZM328.43,260.78v1.88c0,1.17-.14,2.33-.42,3.49-.28,1.15-.78,2.18-1.52,3.09-.73.91-1.72,1.65-2.95,2.21-1.23.57-2.8.85-4.71.85-.75,0-1.5-.11-2.23-.33-.73-.22-1.4-.54-1.99-.97-.6-.42-1.08-.97-1.46-1.64-.38-.67-.57-1.42-.57-2.27,0-1.21.34-2.22,1.01-3.03.67-.81,1.58-1.46,2.71-1.94,1.13-.49,2.4-.83,3.81-1.03,1.41-.2,2.87-.3,4.38-.3h3.93ZM331.65,256.23c0-3.56-.99-6.13-2.98-7.73-1.99-1.6-4.64-2.39-7.98-2.39-1.79,0-3.65.33-5.6,1-1.94.67-3.57,1.65-4.88,2.94l2.08,2.49c2.42-2.1,5.22-3.15,8.4-3.15,2.22,0,4.07.53,5.54,1.58,1.47,1.05,2.2,2.79,2.2,5.21v1.7h-4.17c-1.35,0-2.91.09-4.67.27-1.77.18-3.43.59-5,1.21-1.57.63-2.89,1.57-3.96,2.82-1.07,1.25-1.61,2.95-1.61,5.09,0,1.5.29,2.77.86,3.82.58,1.05,1.32,1.91,2.23,2.58.91.67,1.94,1.15,3.1,1.46,1.15.3,2.32.45,3.51.45,2.34,0,4.28-.42,5.81-1.27,1.53-.85,2.81-2.18,3.84-4h.12c0,1.66.12,3.17.36,4.55h3.34c-.12-.81-.21-1.62-.27-2.43-.06-.81-.11-1.68-.15-2.61-.04-.93-.07-1.94-.09-3.03-.02-1.09-.03-2.32-.03-3.7v-6.85ZM290.27,274.85h3.69l10.84-28.01h-3.63l-8.93,24.07-9.17-24.07h-4.05l11.25,28.01ZM270.2,265.3c-.6,1.39-1.41,2.61-2.44,3.64-1.03,1.03-2.24,1.85-3.63,2.45-1.39.61-2.9.91-4.53.91s-3.18-.3-4.52-.91c-1.35-.61-2.5-1.43-3.45-2.45-.95-1.03-1.68-2.24-2.17-3.64-.5-1.39-.75-2.88-.75-4.46s.25-3.06.75-4.46c.5-1.39,1.22-2.61,2.17-3.64.95-1.03,2.1-1.85,3.45-2.46,1.35-.61,2.86-.91,4.52-.91s3.14.3,4.53.91c1.39.61,2.6,1.42,3.63,2.46,1.03,1.03,1.85,2.24,2.44,3.64.6,1.39.89,2.88.89,4.46s-.3,3.06-.89,4.46M270.74,274.85h3.57v-43.55h-3.57v20.45h-.12c-.56-.97-1.25-1.81-2.08-2.52-.83-.71-1.74-1.29-2.71-1.76-.97-.47-2-.81-3.07-1.03-1.07-.22-2.12-.33-3.16-.33-2.1,0-4.05.36-5.83,1.09-1.79.73-3.31,1.75-4.58,3.06-1.27,1.31-2.26,2.87-2.98,4.67-.71,1.8-1.07,3.77-1.07,5.91s.36,4.11,1.07,5.91c.71,1.8,1.71,3.36,2.98,4.67,1.27,1.31,2.8,2.33,4.58,3.06,1.79.73,3.73,1.09,5.83,1.09,1.03,0,2.08-.11,3.16-.33,1.07-.22,2.09-.57,3.07-1.03.97-.46,1.88-1.05,2.71-1.76.83-.71,1.53-1.55,2.08-2.52h.12v4.91ZM234.11,260.78v1.88c0,1.17-.14,2.33-.42,3.49-.28,1.15-.79,2.18-1.52,3.09-.73.91-1.72,1.65-2.95,2.21-1.23.57-2.8.85-4.7.85-.76,0-1.5-.11-2.23-.33-.74-.22-1.4-.54-2-.97-.6-.42-1.08-.97-1.46-1.64-.38-.67-.57-1.42-.57-2.27,0-1.21.34-2.22,1.01-3.03.68-.81,1.58-1.46,2.71-1.94,1.13-.49,2.4-.83,3.81-1.03,1.41-.2,2.87-.3,4.38-.3h3.93ZM237.33,256.23c0-3.56-.99-6.13-2.98-7.73-1.99-1.6-4.65-2.39-7.98-2.39-1.79,0-3.65.33-5.6,1-1.95.67-3.57,1.65-4.88,2.94l2.08,2.49c2.42-2.1,5.22-3.15,8.4-3.15,2.22,0,4.07.53,5.54,1.58,1.47,1.05,2.2,2.79,2.2,5.21v1.7h-4.17c-1.35,0-2.91.09-4.67.27-1.77.18-3.43.59-5,1.21-1.57.63-2.89,1.57-3.96,2.82-1.07,1.25-1.61,2.95-1.61,5.09,0,1.5.29,2.77.86,3.82.57,1.05,1.32,1.91,2.23,2.58.91.67,1.94,1.15,3.1,1.46,1.15.3,2.32.45,3.51.45,2.34,0,4.28-.42,5.81-1.27,1.53-.85,2.81-2.18,3.84-4h.12c0,1.66.12,3.17.36,4.55h3.33c-.12-.81-.21-1.62-.27-2.43-.06-.81-.11-1.68-.15-2.61-.04-.93-.07-1.94-.09-3.03-.02-1.09-.03-2.32-.03-3.7v-6.85Z"/>
  <path class="cls-1" d="M543.93,257.66c.04-.69.2-1.36.48-1.99.28-.63.68-1.19,1.19-1.67.51-.48,1.12-.87,1.84-1.18s1.55-.46,2.49-.46c1.55,0,2.81.52,3.8,1.56.98,1.04,1.45,2.29,1.42,3.75h-11.21ZM556.39,265.56c-.72,1-1.56,1.82-2.52,2.45-.96.64-2.14.95-3.54.95-1.66,0-3.06-.49-4.19-1.47-1.13-.98-1.87-2.3-2.21-3.95h19.71v-2.71c0-2.23-.3-4.25-.91-6.05-.6-1.81-1.46-3.35-2.58-4.64-1.11-1.29-2.47-2.28-4.08-2.97-1.6-.69-3.39-1.04-5.35-1.04-2.12,0-4.11.35-5.97,1.04-1.87.69-3.49,1.68-4.87,2.97-1.38,1.29-2.46,2.83-3.26,4.64-.79,1.81-1.19,3.83-1.19,6.05s.4,4.25,1.19,6.06c.79,1.81,1.88,3.36,3.26,4.64,1.38,1.29,3,2.28,4.87,2.97,1.87.69,3.86,1.04,5.97,1.04,2.23,0,4.38-.48,6.46-1.44,2.08-.96,3.8-2.33,5.15-4.09l-5.95-4.44ZM518.27,274.85h8.5v-21.11h6.29v-6.92h-6.29v-4.44c0-1.85.34-3.07,1.02-3.66.68-.6,1.7-.89,3.06-.89.53,0,1,.05,1.42.14.42.1.87.24,1.36.43l.4-7.32c-.79-.19-1.6-.33-2.43-.4-.83-.08-1.68-.12-2.55-.12-2.3,0-4.16.3-5.58.89-1.42.6-2.5,1.41-3.26,2.45-.76,1.04-1.27,2.24-1.53,3.6-.27,1.37-.4,2.82-.4,4.35v4.96h-5.61v6.92h5.61v21.11ZM501.48,241.54c.96.98,2.12,1.47,3.48,1.47s2.52-.49,3.48-1.47,1.44-2.16,1.44-3.55-.48-2.57-1.44-3.55c-.96-.98-2.12-1.47-3.48-1.47s-2.52.49-3.48,1.47c-.96.98-1.45,2.16-1.45,3.55s.48,2.57,1.45,3.55M500.72,274.85h8.5v-28.03h-8.5v28.03ZM485.99,274.85h8.5v-43.6h-8.5v43.6Z"/>
  <path class="cls-2" d="M627.19,19.09c0,10.54-8.55,19.09-19.09,19.09s-19.09-8.55-19.09-19.09,8.55-19.09,19.09-19.09,19.09,8.55,19.09,19.09Z"/>
</svg>